# xmcd
#
# Track frame offsets:
#	150
#	11891
#	28835
#	49317
#	66735
#	85049
#	100913
#	114547
#	135459
#	152764
#	171732
#	199064
#
# Disc length: 3703 seconds
#
# Revision: 0
# Processed by: cddbd v1.5.1PL2 Copyright (c) Steve Scherf et al.
# Submitted via: dBpowerAMP V4.0
#
DISCID=ae0e750c
DTITLE=Tandy - The Bloodroot Transcriptions
DYEAR=1900
DGENRE=
TTITLE0=New candy necklace
TTITLE1=Becky California
TTITLE2=Fidelis
TTITLE3=The truth is better than a lie
TTITLE4=Louis Green
TTITLE5=True fine love
TTITLE6=The stations
TTITLE7=That's my candle
TTITLE8=Won't break down
TTITLE9=Might shine again
TTITLE10=New candy necklace (reprise)
TTITLE11=DATA
EXTD=
EXTT0=
EXTT1=
EXTT2=
EXTT3=
EXTT4=
EXTT5=
EXTT6=
EXTT7=
EXTT8=
EXTT9=
EXTT10=
EXTT11=
PLAYORDER=
